<?xml version="1.0" standalone="no"?>
<!DOCTYPE svg PUBLIC "-//W3C//DTD SVG 20010904//EN"
 "http://www.w3.org/TR/2001/REC-SVG-20010904/DTD/svg10.dtd">
<svg version="1.0" xmlns="http://www.w3.org/2000/svg"
 width="24.000000pt" height="24.000000pt" viewBox="0 0 24.000000 24.000000"
 preserveAspectRatio="xMidYMid meet">

<g transform="translate(0.000000,24.000000) scale(0.100000,-0.100000)"
fill="#000000" stroke="none">
<path d="M75 159 c-4 -6 -5 -13 -2 -16 7 -7 27 6 27 18 0 12 -17 12 -25 -2z"/>
<path d="M105 147 c-7 -27 -44 -55 -46 -35 -1 7 -1 19 0 26 1 6 -3 12 -9 12
-5 0 -10 -4 -10 -9 0 -5 -9 -13 -20 -16 -11 -3 -20 -11 -20 -16 0 -6 4 -8 9
-5 16 10 20 -22 5 -35 -8 -7 -14 -24 -12 -38 l3 -26 117 -3 116 -3 0 76 c1 66
-2 76 -16 73 -12 -2 -20 -20 -27 -66 l-10 -64 -13 49 c-22 78 -34 103 -48 103
-8 0 -16 -10 -19 -23z"/>
</g>
</svg>
