<?xml version="1.0" standalone="no"?>
<!DOCTYPE svg PUBLIC "-//W3C//DTD SVG 20010904//EN"
 "http://www.w3.org/TR/2001/REC-SVG-20010904/DTD/svg10.dtd">
<svg version="1.0" xmlns="http://www.w3.org/2000/svg"
 width="52.000000pt" height="52.000000pt" viewBox="0 0 52.000000 52.000000"
 preserveAspectRatio="xMidYMid meet">

<g transform="translate(0.000000,52.000000) scale(0.100000,-0.100000)"
fill="#000000" stroke="none">
<path d="M305 359 c8 -24 7 -24 -13 -6 -24 22 -36 17 -58 -25 -11 -20 -19 -27
-26 -20 -7 7 -6 17 1 30 15 28 -4 40 -28 18 -10 -9 -20 -13 -23 -10 -3 3 -9 1
-13 -5 -3 -6 -2 -11 3 -11 5 0 12 -9 15 -20 4 -14 10 -18 22 -13 10 3 16 2 13
-3 -2 -5 -11 -24 -18 -41 -8 -18 -20 -33 -27 -33 -7 0 -13 -6 -14 -12 -1 -21
-20 45 -22 77 -1 17 -6 31 -12 32 -5 1 -9 -7 -7 -18 3 -16 -1 -19 -21 -14 -20
5 -27 2 -32 -14 -7 -23 -31 -28 -38 -8 -3 6 -4 2 -4 -10 1 -18 7 -23 27 -23
l25 -1 -27 -22 c-32 -26 -38 -43 -9 -26 21 14 51 6 51 -13 0 -10 -2 -10 -8 -1
-5 8 -16 4 -35 -13 -16 -13 -22 -24 -15 -24 10 0 10 -2 1 -8 -14 -9 -15 -90
-2 -98 5 -3 7 -10 4 -15 -4 -5 94 -9 248 -9 l253 0 -4 67 c-5 90 -5 99 3 164
12 91 -23 129 -64 70 -28 -38 -27 -67 2 -76 21 -7 21 -7 2 -12 -26 -7 -35 -21
-35 -60 0 -25 -4 -31 -15 -27 -17 7 -21 -11 -5 -21 13 -8 13 -55 0 -55 -7 0
-20 41 -25 80 0 3 -4 11 -9 19 -5 8 -4 17 5 23 11 7 10 8 -4 6 -16 -3 -19 5
-21 52 -4 59 -13 90 -27 90 -5 0 -7 11 -3 24 3 14 1 27 -6 31 -9 5 -10 1 -5
-16z m-226 -246 c0 -25 -1 -25 -8 -8 -5 11 -7 23 -4 28 8 14 13 7 12 -20z"/>
<path d="M390 160 c0 -5 5 -10 11 -10 5 0 7 5 4 10 -3 6 -8 10 -11 10 -2 0 -4
-4 -4 -10z"/>
</g>
</svg>
